<?xml version="1.0" encoding="UTF-8" standalone="no"?>
<!-- Generator: Adobe Illustrator 15.0.2, SVG Export Plug-In . SVG Version: 6.00 Build 0)  -->
<svg id="Layer_1" enable-background="new 0 0 455.234 511.864" xml:space="preserve" viewBox="0 0 455.234 511.864"
  version="1.1" y="0px" x="0px">
  <g fill="#000000" clip-rule="evenodd" fill-rule="evenodd">
    <path
      d="m113.2 34.022c-3.465-0.012-6.931-0.025-10.396-0.037 0.574 0.663 0.792 1.68 0.732 2.973 6.637-0.908 16.061-1.511 20.787 1.559-5.629 1.286-13.18 0.637-17.832 2.907 0.607 1.864 2.593 2.358 3.699 3.726 7.526-2.106 14.19 3.698 21.514 6.017 9.673 3.064 21.914 1.564 27.441 9.752-0.742-0.003-1.485-0.005-2.229-0.008 0.348 7.051-0.39 11.882 2.165 17.829-0.742-0.002-1.485-0.005-2.229-0.008 2.466 6.285 1.12 7.651 3.663 14.122-2.1 0.606-1.92-1.053-3.71-0.756 0.387 4.303 5.246 4.165 5.167 8.929-2.752 0.081-1.873 1.074-1.497 2.965-0.859-0.626-1.987-0.986-3.71-0.756 6.549 6.077 13.683 11.573 22.222 15.673-3.554 2.676-9.909-3.713-14.835-4.508-2.226 0.48 0.705 1.59-0.011 2.97-1.979-0.007-3.96-0.014-5.939-0.021-1.209 2.113-2.34 6.092 0.718 6.686-0.841 0.891-2.125 1.338-1.499 3.708-9.2 0.679-19.646-4.228-16.297-11.197-1.308-1.399-2.171 0.876-3.71-0.756-0.602-19.735-5.016-35.929-6.466-60.915-3.663-5.489-14.079-4.273-20.768-6.757-1.423 12.479-7.416 20.354-15.687 25.935 0.314 1.415 1.594 1.871 1.472 3.718-3.911-2.386-3.935 4.753-5.964 6.662 3.917 5.77 2.809 12.999 6.62 17.846-4.357 2.228 4.293 5.906-1.509 6.678 5.85 4.406 7.476 13.928 5.129 19.326 1.121 2.094 4.808 1.64 5.927 3.734-2.04 4.409-7.438 2.156-11.141 0.703-1.487-4.197-3.286-8.083-8.881-8.2-1.486-1.52 0.333-1.455 0.752-2.968-1.313-1.408-5.44-0.023-5.187-2.989 0.86 0.626 1.987 0.986 3.71 0.755-5.02-5.462-4.953-13.035-9.598-15.628 2.549-3.223 0.045-4.569-3.694-5.211-0.342-1.585 1.065-1.411 2.232-1.477 0.127-2.839-3.023-2.424-4.442-3.729 2.504-2.443 0.627-7.504-2.941-8.179 0.124-0.87 1.356-0.622 2.23-0.735 0.596-3.058-3.55-1.407-2.955-4.466 2.172 0.675 2.279 0.676 4.456 0.016-1.569-2.775-5.827-5.881-2.933-10.406-2.758-11.219-17.282-13.315-16.223-26.047 8.229-8.853 27.866-6.215 37.179-13.977 2.261-0.024 2.882 1.578 4.448 2.244 5.486-0.699 17.708-2.512 20.038 2.299zm-55.74 13.911c5.245 4.909 9.466 14.769 17.771 14.172-8.084-6.149-0.771-20.414 1.572-24.499-8.58 1.294-12.737 7.044-19.343 10.327zm29.729-7.32c-2.707 2.889-0.889 8.3 1.448 10.401 5.241-0.187 9.447-1.416 14.117-2.177-1.42-6.475-7.801-8.036-15.561-8.224z" />
    <path
      d="m236.08 143.62c12.545 13.935 26.958 26.016 31.017 48.378 0.995 1.478 5.185-0.215 5.189 2.247-2.025 5.385-2.104 7.647-0.793 14.106-7.302-10.724-8.648-23.981-16.212-34.959-7.004-10.167-17.457-16.473-23.668-26.817 0.1-2.38 1.69-3.27 4.46-2.96z" />
    <path
      d="m259.81 154.1c2.477 0.994 4.615 2.324 5.925 4.477 0.107 1.848-1.176 2.294-1.499 3.708-0.354 3.205 6.001 2.382 2.95 5.951 2.767 0.799 1.185-2.781 3.721-2.214 3.1 6.542-4.925 0.777-3.734 5.927-7.7-2.22-4.87-10.4-7.37-17.86z" />
    <path d="m267.22 156.35c3.107 0.368 4.716 2.223 4.434 5.957-3.17 2.04-6.67-2.78-4.43-5.96z" />
    <path d="m53.311 170.44c3.293 1.419 0.417 8.62-1.52 9.648-0.568-4.3 2.088-5.35 1.52-9.65z" />
    <path
      d="m267.89 177.15c-0.348-2.337 1.068-2.899 1.501-4.45 2.287-0.545 1.42 2.043 3.708 1.498 0.107 1.848-1.176 2.294-1.499 3.708-2.1 0.6-1.92-1.06-3.71-0.76z" />
    <path
      d="m272.33 182.36c-0.662 0.327-1.329 0.647-1.489 1.48-2.018-3.107-7.285-0.071-6.66-6.708 0.863 0.124 1.322-0.159 1.488-0.737 2.54 1.68 5.51 2.92 6.66 5.97z" />
    <path d="m273 201.67c2.699-0.214 0.977 3.963 2.209 5.206-2.42-0.07-1.57-3.37-2.21-5.21z" />
    <path
      d="m118.89 313.25c1.621-0.129 2.36 0.616 2.22 2.236-1.262-0.277-1.403 0.573-1.49 1.479-2.49-0.69-0.36-1.39-0.73-3.72z" />
    <path d="m122.59 316.98c6.374 6.249 12.266 12.979 16.26 21.593-5.96-6.66-11.73-13.51-16.26-21.59z" />
    <path d="m118.85 325.13c5.27 7.347 11.22 14.019 16.26 21.594-8.95-3.68-11.82-13.42-16.26-21.59z" />
    <path d="m124.04 326.64c2.398 1.071 3.779 3.154 4.435 5.955-3.1-0.39-3.57-3.38-4.44-5.96z" />
    <path d="m159.68 328.25c-2.401 4.526-6.559 10.453-11.175 10.356 3.24-3.95 6.62-7.75 11.18-10.36z" />
    <path
      d="m141.11 330.41c2.782 0.596 0.037 2.596 1.472 3.719 2.26 0.217 2.896-2.371 4.458-0.729-0.188 2.294-3.7 1.242-2.986 4.446-2.98-0.741-4.543-2.89-4.432-6.699 0.86 0.12 1.32-0.16 1.49-0.74z" />
    <path d="m163.38 331.23c3.409 1.332-0.516 4.492-2.985 4.444-0.13-2.6 2.51-2.42 2.98-4.44z" />
    <path d="m163.36 337.92c-0.975 2.247-1.625 4.823-5.213 4.438 0.15-3.08 1.41-5.04 5.21-4.44z" />
    <path
      d="m454.52 360.92c-9.724 1.636-28.996 6.549-38.047 6.118-78.813-3.745-135.87 11.138-196.87 24.547 0.227 9.442 4.288 18.863 2.873 27.485-10.89 3.688-21.572-0.712-31.925-1.599-7.167-0.613-24.331 0.264-31.196 2.115-8.6 2.323-20.094 12.821-28.286 19.208-27.347 21.315-53.03 46.003-72.284 71.03 13.387-26.511 31.303-48.463 53.701-65.898-14.26 1.01-10.472-22.104-16.968-31.249-0.714 9.217-8.542 11.269-9.725 20.015 2.87 4.681 8.797-2.855 10.394 0.779-4.173 6.403-17.523 7.885-23.025 1.404-0.306-3.397-1.107-6.301-0.706-10.399-14.785 10.52-25.612 25.571-35.789 40.715-7.648 11.381-16.135 23.261-22.402 34.821-2.195 4.049-2.847 9.562-7.468 11.854-2.982-5.626 2.112-12.115 4.514-16.319 14.735-25.798 30.442-47.894 49.258-69.628 7.168-8.279 19.207-15.668 23.107-24.422 1.353-3.036 2.091-8.762 3.021-14.099 2.071-11.885 6.531-34.383 0.907-46.036-1.458-3.021-5.398-4.305-7.399-7.452-2.113-3.326-3.228-8.74-5.15-13.386-1.805-4.359-5.408-8.732-6.639-12.646-2.101-6.689 0.639-15.496-2.888-23.03-2.325-4.97-10.003-9.389-14.058-14.16-15.807-18.598-18.762-55.14-16.04-83.226 1.205-12.436 9.86-37.255 15.016-45.986 2.688-4.555 11.519-10.671 11.939-16.294 0.196-2.622-1.605-5.251-2.938-8.921-3.772-10.379-7.446-18.233-13.279-24.553-8.063 2.561-18.463 2.769-28.971 2.867-4.292 1.991-4.165 12.061-9.69 10.361-4.947-6.815-8.352-20.548-7.32-29.729 1.563-13.918 20.862-22.534 20.184-37.8 14.54-30.685 55.635-40.068 98.905-36.763 27.933 2.133 47.966 13.924 61.527 29.922 9.9 11.68 16.621 27.886 22.126 42.406 4.893 12.904 8.897 21.292 13.244 34.207 5.417 16.096 13.794 20.641 34.089 19.429 10.232 5.663 18.049 13.494 22.938 23.101 25.807 50.709-4.921 128.6-44.324 143.9 8.912-9.29 22.145-22.061 30.566-34.05 21.528-30.65 32.29-91.006 3.386-116.57-10.141-8.969-26.622-9.554-40.785-15.739-4.164-8.939-10.791-15.431-13.274-26.038-3.656 3.116-3.653 13.586-11.176 10.357-5.264-6.315-4.836-24.358-12.515-30.491 5.18-2.133-2.41-6.242 1.514-8.163 0.591-3.545-4.636-1.316-5.184-3.731 4.422-2.401-1.18-10.307 5.975-9.632-11.675-17.57-28.378-37.275-48.101-46.954-12.295-6.034-35.952-7.082-53.446-5.389-32.179 3.115-52.316 13.384-60.291 39.884 1.442 1.528 5.609 0.351 5.93 2.992 3.474 8.883 12.224 12.527 14.772 22.33 5.175 2.015 11.88 2.51 14.828 6.736-2.39-1.081-6.227-0.724-9.651-0.777 0.705 4.389 4.089 8.696 2.181 13.374 3.76 5.433 8.648 17.497 14.764 24.558 2.938 3.392 7.984 5.44 8.133 9.683 0.156 4.419-3.433 6.272-7.458 8.884-2.599 8.878-6.161 19.047-9.019 30.414-2.823 11.226-4.159 23.403-9.027 32.641-0.222-2.246 0.845-5.772-1.464-5.946 0.436 20.568-15.04 37.289-6.147 57.899 3.264 7.565 10.464 17.553 19.246 17.148 4.466-7.073 3.939-17.153 6.033-25.969 2.04-8.583 4.67-17.276 8.993-22.988-7.646 22.306-15.378 57.729-7.733 86.112 3.301 12.252 12.09 22.495 15.48 31.985 5.171-1.747 8.789-5.059 14.872-5.887 2.871-5.122 0.224-7.651 3.013-11.872 2.953-4.466 10.878-4.109 11.913-8.867 0.812-3.729-2.964-8.151-5.158-11.157-7.27-9.958-14.63-19.818-15.48-31.986 4.819 6.198 7.597 15.233 14.032 21.583 5.502 5.432 19.635 13.414 27.422 14.949 6.632 1.308 16.596 2.728 24.5 1.574 6.927-1.011 13.282-5.943 20.079-8.097 11.517-3.652 22.413-7.742 27.535-16.982 2.905 0.442 4.315-0.623 5.947-1.463 8.883-11.427 24.995-29.596 27.641-46.684 3.493-22.555 2.187-46.735-2.732-66.842 6.08 1.924 7.489 8.276 8.119 14.138 4.179 38.899-5.58 75.017-21.134 95.718-9.422 6.161-13.793 17.406-23.104 23.68 1.329 1.642 0.63 5.294 1.458 7.432 2.029 2.784 4.843-2.409 6.684 0.023-11.052 3.852-0.2 32.107 3.581 37.143 6.892 0.896 14.85-5.357 20.806-3.64 3.84 1.107 2.689 4.734 6.658 6.708 19.543-2.858 35.646-13.133 51.317-22.095 5.987 2.193 10.13 6.22 13.326 11.187 0.761 3.496-1.724 3.726-2.989 5.187 26.362-2.361 56.656-12.453 83.935-6.385 2.179 0.486 3.916 2.438 5.93 2.992 9.55 2.625 18.556 2.55 26.715 5.292 7.886 2.651 28.811 14.649 34.957 17.66l-0.74 1.48m-8.97-3.31m-4.31-0.57c-5.656-3.228-16.236-7.752-31.375-11.56-11.229-2.823-23.302-7.368-35.614-8.295-29.225-2.198-59.825 2.775-83.202 9.358-2.313-2.271 4.294-3.188 1.506-5.937-2.797-2.648-5.73-5.161-8.884-7.457-9.315 5.357-19.919 13.579-32.734 16.963-15.226 4.021-33.338 0.614-46.812 8.001 4.51 8.839 4.039 21.046-0.105 29.703 3.914-1.524 9.27-1.594 11.896-4.412 48.733-7.04 92.267-21.113 144.89-23.248 5.529-0.223 11.282-0.479 16.339-0.684 21.254-0.858 52.824 4.358 62.587 0.811l6.127-0.478-4.65-2.75zm-437.38-272.17c0.408 4.992 1.362 13.363 5.885 15.615 4.218-3.7 2.855-13.022 5.264-18.545 7.804-2.822 18.596-2.635 23.792-8.083 0.31-1.788-1.35-1.619-0.729-3.716-6.224-0.386-14.603-3.958-15.552-11.937-0.801-1.893 3.488-2.867 0.011-2.971-7.162 5.746-19.81 15.692-18.671 29.633zm25.324-21.445c2.334 0.364 2.907-1.047 4.46-1.469 1.832-7.974-8.321-2.924-4.46 1.469zm-12.719 26.688c6.398-1.854 17.212 2.123 24.51-1.397-0.506-2.95 1.324-8.221-1.453-8.917-7.577 3.548-20.004 2.21-23.057 10.314zm46.596 52.146c2.411-1.298 3.065-4.365 3.739-7.412-3.844 0.48-4.781 3.95-3.739 7.41zm-11.273 37.83c1.937-1.028 4.812-8.229 1.52-9.648 0.568 4.3-2.088 5.35-1.52 9.65zm146.61 117.85c-4.472 10.561 2.672 33.832 0.584 44.558 5.214-2.386 5.863 1.358 11.139 0.039 1.179-3.724-2.252-5.932-3.678-9.667-3.733-9.775-2.967-23.272-5.075-34.919-0.98 0-1.97 0-2.96-0.01zm-34.93 9.53c-15.521 2.726-31.157-2.055-44.541-3.872-2.328 1.879-2.509 5.917-2.265 10.387-3.406 2.283-8.106 3.264-11.16 5.901-7.764 18.031-7.773 47.922 1.255 64.608 10.298-6.52 21.899-11.729 34.216-16.214-0.238-8.687 0.415-16.476 2.31-23.012 0.083 8.341-0.852 15.968-0.822 22.274 14.417-3.614 26.116-9.965 41.629-12.477 3.395-15.366 5.426-40.902-1.292-54.212-7.66-2-12.41 5.39-19.34 6.61zm125.41 23.47c1.648 3.709 8.898 7.5 13.353 3.76-0.83-5.2-11.71-12.6-13.35-3.76zm-178.43 59.51c6.262 11.786 16.94 19.189 25.889 28.309-14.168 11.774-18.753-11.828-30.395-14.218-2.798 2.006-1.734 8.24-0.788 12.623 2.178 10.084 4.556 18.254 9.574 22.312 0.628 2.371-1.176 2.292-1.498 3.707 24.726-20.309 51.951-38.098 82.613-52.429 1.576-10.404 6.13-20.626 1.596-31.184-2.734 0.477-5.844 0.573-7.434 2.202 0.6 7.311-1.838 11.562-2.29 17.814-1.44-1.531-4.779-1.176-6.676-2.253-3.37-6.865 4.158-14.435 0.808-18.562-26.68 7.66-48.34 20.37-71.39 31.68zm104.69 1.86c-7.038 2.848-15.7 4.062-20.083 9.583-11.323 0.057-20.066 9.078-29.011 14.004 17.146-3.545 34.301 0.659 53.465 0.19 0.86-7.33-0.2-18.98-4.38-23.77z" />
  </g>
</svg>